<?xml version="1.0" encoding="UTF-8" standalone="no"?>
<!-- Created with Inkscape (http://www.inkscape.org/) -->

<svg
   version="1.1"
   id="svg1"
   width="1412.96"
   height="826.56"
   viewBox="0 0 1412.96 826.56"
   sodipodi:docname="pdf_واحه_ريسوت[1].pdf"
   inkscape:export-filename="pdf_واحه_ريسوت[1].svg"
   inkscape:export-xdpi="96"
   inkscape:export-ydpi="96"
   inkscape:dataloss="true"
   xmlns:inkscape="http://www.inkscape.org/namespaces/inkscape"
   xmlns:sodipodi="http://sodipodi.sourceforge.net/DTD/sodipodi-0.dtd"
   xmlns:xlink="http://www.w3.org/1999/xlink"
   xmlns="http://www.w3.org/2000/svg"
   xmlns:svg="http://www.w3.org/2000/svg">
  <defs
     id="defs1">
    <color-profile
       name="sRGB-IEC61966-2.1"
       xlink:href="../../../Windows/system32/spool/drivers/color/sRGB%20Color%20Space%20Profile.icm"
       id="color-profile3" />
    <color-profile
       name="Agfa-:-Swop-Standard"
       xlink:href="../../../Windows/system32/spool/drivers/color/RSWOP.icm"
       id="color-profile4" />
    <clipPath
       clipPathUnits="userSpaceOnUse"
       id="clipPath2">
      <path
         d="M 0,619.92 H 1059.72 V 0 H 0 Z"
         transform="translate(-697.82422,-274.63621)"
         id="path2" />
    </clipPath>
    <linearGradient
       x1="0"
       y1="0"
       x2="1"
       y2="0"
       gradientUnits="userSpaceOnUse"
       gradientTransform="matrix(366.53254,0,0,437.69485,423.21796,371.56786)"
       spreadMethod="pad"
       id="linearGradient4">
      <stop
         style="stop-opacity:1;stop-color:#003f3d"
         offset="0"
         id="stop2" />
      <stop
         style="stop-opacity:1;stop-color:#024c48"
         offset="0.668233"
         id="stop3" />
      <stop
         style="stop-opacity:1;stop-color:#024c48"
         offset="1"
         id="stop4" />
    </linearGradient>
    <clipPath
       clipPathUnits="userSpaceOnUse"
       id="clipPath6">
      <path
         d="M 0,619.92 H 1059.72 V 0 H 0 Z"
         transform="translate(-733.71672,-350.86401)"
         id="path6" />
    </clipPath>
    <mask
       maskUnits="userSpaceOnUse"
       x="0"
       y="0"
       width="1"
       height="1"
       id="mask6">
      <path
         id="path8"
         d="M -32768,32767 H 32767 V -32768 H -32768 Z"
         style="fill:url(#linearGradient8);stroke:none" />
    </mask>
    <linearGradient
       x1="0"
       y1="0"
       x2="1"
       y2="0"
       gradientUnits="userSpaceOnUse"
       gradientTransform="matrix(-108.92402,107.38987,107.38987,108.92402,725.21136,355.996)"
       spreadMethod="pad"
       id="linearGradient8">
      <stop
         style="stop-opacity:0;stop-color:#ffffff"
         offset="0"
         id="stop6" />
      <stop
         style="stop-opacity:0;stop-color:#ffffff"
         offset="0.331767"
         id="stop7" />
      <stop
         style="stop-opacity:1;stop-color:#ffffff"
         offset="1"
         id="stop8" />
    </linearGradient>
    <linearGradient
       x1="0"
       y1="0"
       x2="1"
       y2="0"
       gradientUnits="userSpaceOnUse"
       gradientTransform="matrix(-108.92402,107.38987,107.38987,108.92402,725.21136,355.996)"
       spreadMethod="pad"
       id="linearGradient11">
      <stop
         style="stop-opacity:1;stop-color:#c4a96e"
         offset="0"
         id="stop9" />
      <stop
         style="stop-opacity:1;stop-color:#c4a96e"
         offset="0.331767"
         id="stop10" />
      <stop
         style="stop-opacity:1;stop-color:#af9464"
         offset="1"
         id="stop11" />
    </linearGradient>
    <clipPath
       clipPathUnits="userSpaceOnUse"
       id="clipPath12">
      <path
         d="m 583.563,499.9 c -16.973,0.127 -33.304,-2.653 -48.55,-7.927 v 0 c 9.205,-4.57 17.163,-10.036 23.779,-16.3 v 0 c 2.717,-2.589 5.242,-5.305 7.575,-8.182 v 0 c 25.281,-0.128 101.158,-9.781 125.352,-118.928 v 0 c 0.288,-1.055 0.511,-2.141 0.736,-3.228 v 0 c 0.447,-2.206 0.927,-4.284 1.406,-6.265 v 0 c 1.95,-0.287 3.931,-0.671 5.912,-1.118 v 0 c 2.814,-0.64 5.626,-1.375 8.375,-2.27 v 0 c 12.912,-4.187 12.369,-1.886 9.333,-16.683 v 0 c -0.193,-0.96 -0.671,-1.854 -0.735,-2.781 v 0 c -0.448,-5.594 -2.813,-6.52 -7.927,-4.347 v 0 c -2.045,0.863 -4.06,1.662 -6.073,2.301 v 0 c 5.114,-8.789 10.803,-10.994 16.748,-8.47 v 0 c 3.1,1.279 6.297,3.868 9.493,7.448 v 0 c 3.068,12.017 4.698,24.674 4.73,37.714 v 0 c 0.19,81.447 -66.685,149.057 -148.152,149.049 v 0 c -0.662,0 -1.339,-0.004 -2.002,-0.013"
         transform="matrix(1.3333333,0,0,-1.3333333,0,826.56)"
         id="path12" />
    </clipPath>
    <mask
       maskUnits="userSpaceOnUse"
       x="0"
       y="0"
       width="1"
       height="1"
       id="mask12">
      <path
         id="path15"
         d="M -32768,32767 H 32767 V -32768 H -32768 Z"
         style="fill:url(#linearGradient15);stroke:none" />
    </mask>
    <linearGradient
       x1="0"
       y1="0"
       x2="1"
       y2="0"
       gradientUnits="userSpaceOnUse"
       gradientTransform="matrix(111.85931,91.093353,91.093353,-111.85931,615.92981,200.63164)"
       spreadMethod="pad"
       id="linearGradient15">
      <stop
         style="stop-opacity:0;stop-color:#ffffff"
         offset="0"
         id="stop12" />
      <stop
         style="stop-opacity:0;stop-color:#ffffff"
         offset="0.0189177"
         id="stop13" />
      <stop
         style="stop-opacity:1;stop-color:#ffffff"
         offset="0.50838"
         id="stop14" />
      <stop
         style="stop-opacity:0.05307088;stop-color:#ffffff"
         offset="1"
         id="stop15" />
    </linearGradient>
    <linearGradient
       x1="0"
       y1="0"
       x2="1"
       y2="0"
       gradientUnits="userSpaceOnUse"
       gradientTransform="matrix(111.85931,91.093353,91.093353,-111.85931,615.92981,200.63164)"
       spreadMethod="pad"
       id="linearGradient19">
      <stop
         style="stop-opacity:1;stop-color:#c4a96e"
         offset="0"
         id="stop16" />
      <stop
         style="stop-opacity:1;stop-color:#c4a96e"
         offset="0.0189177"
         id="stop17" />
      <stop
         style="stop-opacity:1;stop-color:#af9464"
         offset="0.50838"
         id="stop18" />
      <stop
         style="stop-opacity:1;stop-color:#c3a86e"
         offset="1"
         id="stop19" />
    </linearGradient>
    <clipPath
       clipPathUnits="userSpaceOnUse"
       id="clipPath20">
      <path
         d="m 702.578,268.031 c -4.411,-5.018 -8.79,-10.004 -13.552,-14.639 v 0 c -4.698,-4.698 -9.557,-9.14 -14.767,-13.199 v 0 c -10.227,-8.278 -21.318,-15.469 -33.335,-20.967 v 0 c -11.954,-5.657 -24.834,-9.301 -38.289,-12.113 v 0 c 10.419,-0.895 21.094,-0.128 31.418,2.365 v 0 c 40.942,14.319 73.447,45.801 89.203,86.04 v 0 c -6.456,-9.653 -13.359,-18.793 -20.678,-27.487"
         transform="matrix(1.3333333,0,0,-1.3333333,0,826.56)"
         id="path20" />
    </clipPath>
    <mask
       maskUnits="userSpaceOnUse"
       x="0"
       y="0"
       width="1"
       height="1"
       id="mask20">
      <path
         id="path22"
         d="M -32768,32767 H 32767 V -32768 H -32768 Z"
         style="fill:url(#linearGradient22);stroke:none" />
    </mask>
    <linearGradient
       x1="0"
       y1="0"
       x2="1"
       y2="0"
       gradientUnits="userSpaceOnUse"
       gradientTransform="matrix(-107.39017,145.7438,145.7438,107.39017,559.32312,323.20828)"
       spreadMethod="pad"
       id="linearGradient22">
      <stop
         style="stop-opacity:0;stop-color:#ffffff"
         offset="0"
         id="stop20" />
      <stop
         style="stop-opacity:0;stop-color:#ffffff"
         offset="0.331767"
         id="stop21" />
      <stop
         style="stop-opacity:1;stop-color:#ffffff"
         offset="1"
         id="stop22" />
    </linearGradient>
    <linearGradient
       x1="0"
       y1="0"
       x2="1"
       y2="0"
       gradientUnits="userSpaceOnUse"
       gradientTransform="matrix(-107.39017,145.7438,145.7438,107.39017,559.32312,323.20828)"
       spreadMethod="pad"
       id="linearGradient25">
      <stop
         style="stop-opacity:1;stop-color:#024c48"
         offset="0"
         id="stop23" />
      <stop
         style="stop-opacity:1;stop-color:#024c48"
         offset="0.331767"
         id="stop24" />
      <stop
         style="stop-opacity:1;stop-color:#012826"
         offset="1"
         id="stop25" />
    </linearGradient>
    <clipPath
       clipPathUnits="userSpaceOnUse"
       id="clipPath26">
      <path
         d="m 421.413,495.18 c 10.452,-7.766 21.223,-19.145 29.469,-35.733 v 0 c 0.383,0.672 0.511,0.576 0.927,-0.128 v 0 l 13.679,-23.747 14.606,-25.441 c 1.854,-3.292 2.813,-6.903 3.388,-10.643 v 0 c 0.543,-3.74 0.352,-7.415 -0.383,-11.09 v 0 c -0.959,-4.763 -2.941,-9.045 -5.849,-12.945 v 0 c -2.812,-3.771 -6.296,-6.744 -10.355,-8.917 v 0 c 4.059,-71.657 8.309,-61.813 8.309,-61.813 v 0 l 82.557,33.176 c 2.62,3.579 4.986,7.351 7.095,11.377 v 0 c 0.608,1.119 1.183,2.27 1.725,3.453 v 0 c 3.613,7.735 6.169,16.3 7.672,25.697 v 0 0.031 c 1.055,6.616 1.598,13.648 1.598,21.094 v 0 c 0,6.138 -0.416,12.178 -1.311,17.995 v 0 c 0,0.192 -0.031,0.383 -0.064,0.575 v 0 c -0.99,6.393 -2.429,12.593 -4.411,18.602 v 0 c -2.876,8.757 -7.222,16.62 -13.007,23.62 v 0 c -1.95,2.397 -4.06,4.665 -6.361,6.839 v 0 c -7.894,7.511 -17.962,13.647 -30.235,18.41 v 0 c -0.16,0.096 -0.352,0.16 -0.511,0.223 v 0 c -1.599,0.608 -3.26,1.215 -4.922,1.791 v 0 c -12.05,4.122 -26.401,6.552 -43.117,7.318 v 0 c -3.771,0.161 -7.67,0.256 -11.697,0.256 v 0 z"
         transform="matrix(1.3333333,0,0,-1.3333333,0,826.56)"
         id="path26" />
    </clipPath>
    <mask
       maskUnits="userSpaceOnUse"
       x="0"
       y="0"
       width="1"
       height="1"
       id="mask26">
      <path
         id="path28"
         d="M -32768,32767 H 32767 V -32768 H -32768 Z"
         style="fill:url(#linearGradient28);stroke:none" />
    </mask>
    <linearGradient
       x1="0"
       y1="0"
       x2="1"
       y2="0"
       gradientUnits="userSpaceOnUse"
       gradientTransform="matrix(-12.273163,-386.60461,-386.60461,12.273163,405.65152,611.0199)"
       spreadMethod="pad"
       id="linearGradient28">
      <stop
         style="stop-opacity:0;stop-color:#ffffff"
         offset="0"
         id="stop26" />
      <stop
         style="stop-opacity:0;stop-color:#ffffff"
         offset="0.331767"
         id="stop27" />
      <stop
         style="stop-opacity:1;stop-color:#ffffff"
         offset="1"
         id="stop28" />
    </linearGradient>
    <linearGradient
       x1="0"
       y1="0"
       x2="1"
       y2="0"
       gradientUnits="userSpaceOnUse"
       gradientTransform="matrix(-12.273163,-386.60461,-386.60461,12.273163,405.65152,611.0199)"
       spreadMethod="pad"
       id="linearGradient31">
      <stop
         style="stop-opacity:1;stop-color:#024c48"
         offset="0"
         id="stop29" />
      <stop
         style="stop-opacity:1;stop-color:#024c48"
         offset="0.331767"
         id="stop30" />
      <stop
         style="stop-opacity:1;stop-color:#012826"
         offset="1"
         id="stop31" />
    </linearGradient>
    <clipPath
       clipPathUnits="userSpaceOnUse"
       id="clipPath32">
      <path
         d="m 371.874,353.08 -33.688,-0.575 v -149.1 h 84.922 v 93.583 h 31.833 l -3.931,7.927 c -14.63,29.54 -44.706,48.181 -77.559,48.179 v 0 c -0.523,0 -1.052,-0.005 -1.577,-0.014"
         transform="matrix(1.3333333,0,0,-1.3333333,0,826.56)"
         id="path32" />
    </clipPath>
    <clipPath
       clipPathUnits="userSpaceOnUse"
       id="clipPath34">
      <path
         d="M 0,619.92 H 1059.72 V 0 H 0 Z"
         transform="translate(-501.22091,-203.40501)"
         id="path34" />
    </clipPath>
  </defs>
  <sodipodi:namedview
     id="namedview1"
     pagecolor="#ffffff"
     bordercolor="#000000"
     borderopacity="0.25"
     inkscape:showpageshadow="2"
     inkscape:pageopacity="0.0"
     inkscape:pagecheckerboard="0"
     inkscape:deskcolor="#d1d1d1"
     showgrid="false"
     inkscape:export-bgcolor="#ffffffff"
     inkscape:zoom="0.75090594"
     inkscape:cx="706.47996"
     inkscape:cy="413.50052"
     inkscape:window-width="1920"
     inkscape:window-height="1017"
     inkscape:window-x="-8"
     inkscape:window-y="-8"
     inkscape:window-maximized="1"
     inkscape:current-layer="layer-MC0">
    <inkscape:page
       x="0"
       y="0"
       inkscape:label="1"
       id="page1"
       width="1412.96"
       height="826.56"
       margin="144.21466 105.57467 160.00934 105.57387"
       bleed="0" />
  </sodipodi:namedview>
  <g
     id="layer-MC0"
     inkscape:groupmode="layer"
     inkscape:label="Layer 1">
    <path
       id="path1"
       d="m 0,0 c -1.183,-1.534 -2.525,-0.415 -3.612,0.224 -21.574,12.944 -41.613,6.744 -60.694,-5.562 -15.246,-9.78 -29.852,-20.519 -44.842,-30.715 -0.256,-0.159 -0.479,-0.319 -0.735,-0.479 -1.63,-1.119 -3.26,-2.205 -4.922,-3.228 -1.662,-1.055 -3.356,-2.077 -5.05,-3.036 -1.215,-0.704 -2.461,-1.375 -3.708,-2.014 -1.246,-0.639 -2.493,-1.246 -3.739,-1.822 -4.475,-2.045 -9.045,-3.643 -13.871,-4.634 -1.375,-0.288 -2.781,-0.511 -4.187,-0.703 -0.48,-0.064 -0.991,-0.096 -1.502,-0.128 -0.416,-0.064 -0.863,-0.096 -1.311,-0.128 -0.479,-0.032 -0.991,-0.064 -1.47,-0.096 -0.735,-0.032 -1.47,-0.032 -2.205,-0.032 -1.023,0 -2.014,0.032 -3.037,0.064 -12.848,0.735 -23.683,6.361 -33.911,13.552 -0.735,0.511 -1.79,1.118 -1.214,2.237 0.255,0.543 1.182,0.991 1.853,0.991 20.68,0.511 38.802,7.223 55.933,16.204 1.726,0.895 3.452,1.822 5.146,2.781 1.726,0.927 3.419,1.918 5.114,2.876 10.483,6.073 20.71,12.721 31.098,18.985 16.172,9.781 32.473,19.273 51.17,23.62 16.108,3.739 31.802,2.365 47.079,-3.74 3.612,-1.438 4.251,-2.173 4.251,-4.282 C 8.789,13.552 4.89,6.488 0,0 m -12.689,-16.78 c -10.451,-11.506 -22.724,-20.807 -36.404,-28.19 -15.309,-8.278 -31.482,-13.232 -48.325,-15.213 -2.11,-0.256 -4.187,-0.48 -6.329,-0.608 -2.141,-0.159 -4.25,-0.287 -6.424,-0.351 h -0.032 c -2.013,-0.064 -3.995,-0.096 -6.04,-0.064 -2.174,0 -4.667,-0.607 -6.393,1.438 0.128,1.183 0.927,1.726 1.79,2.142 2.301,1.214 4.603,2.461 6.84,3.739 1.694,0.991 3.356,1.982 5.05,3.004 1.662,1.023 3.324,2.078 4.954,3.133 14.926,9.62 28.829,20.711 43.851,30.107 10.195,6.361 20.743,11.89 33.335,11.57 4.315,-0.128 8.374,-0.927 12.306,-2.653 5.689,-2.524 5.944,-3.483 1.821,-8.054 m -183.905,-5.305 c -0.671,0.128 -1.311,0.287 -1.982,0.447 -0.671,0.16 -1.31,0.352 -1.95,0.543 -0.415,0.128 -0.863,0.256 -1.278,0.384 -4.603,1.502 -8.981,3.708 -12.976,6.488 -0.767,0.575 -1.534,1.119 -2.27,1.726 -3.547,2.813 -6.712,6.105 -9.332,9.876 -0.703,0.991 -1.375,2.046 -2.014,3.132 -1.534,2.653 -2.844,5.498 -3.835,8.534 2.045,-0.991 4.059,-1.886 6.104,-2.653 1.343,-0.511 2.685,-0.991 4.028,-1.438 1.502,-0.48 3.036,-0.927 4.538,-1.279 3.196,-0.799 6.36,-1.374 9.493,-1.725 1.342,-0.128 2.652,-0.256 3.995,-0.32 1.31,-0.064 2.652,-0.096 3.963,-0.096 8.15,0 16.204,1.31 24.291,3.548 1.342,0.383 2.684,0.799 4.027,1.214 1.342,0.416 2.685,0.863 4.027,1.343 5.977,2.109 11.826,4.506 17.611,7.095 1.757,0.799 3.547,1.63 5.305,2.493 1.726,0.831 3.452,1.662 5.178,2.525 0.032,0 0.064,0.032 0.096,0.064 24.258,12.113 47.526,26.24 73.031,35.861 20.264,7.606 41.007,12.209 62.581,8.757 1.949,-0.288 3.931,-0.671 5.913,-1.119 2.812,-0.639 5.625,-1.374 8.373,-2.269 12.913,-4.187 12.37,-1.886 9.333,-16.684 -0.191,-0.959 -0.671,-1.853 -0.735,-2.78 -0.447,-5.594 -2.813,-6.52 -7.926,-4.347 -2.046,0.863 -4.059,1.662 -6.073,2.301 -26.56,9.205 -52.033,3.74 -76.899,-8.757 -18.953,-9.557 -36.372,-21.702 -54.718,-32.409 -0.415,-0.224 -0.799,-0.48 -1.214,-0.703 -1.694,-0.959 -3.42,-1.95 -5.114,-2.877 -1.726,-0.959 -3.452,-1.854 -5.178,-2.749 -13.711,-7.063 -28.062,-12.56 -43.755,-14.638 -0.448,-0.064 -0.927,-0.128 -1.406,-0.191 -0.703,-0.064 -1.407,-0.128 -2.11,-0.128 -0.735,-0.032 -1.438,-0.064 -2.141,-0.064 -1.502,0 -3.036,0.064 -4.507,0.224 -1.502,0.159 -3.004,0.383 -4.474,0.671 m 212.287,93.007 -21.798,3.005 -14.638,2.045 -51.01,-12.721 -46.792,-26.464 -33.687,-18.122 v -0.032 l -1.215,-0.639 -18.409,5.37 h -49.86 l -12.561,-11.41 6.52,-16.301 16.876,-23.779 c 0,0 20.999,-29.053 22.437,-29.053 1.438,0 83.547,-14.063 83.547,-14.063 h 0.032 l 10.835,3.644 c 0.032,-0.032 0.032,-0.032 0.064,0 l 2.812,0.926 c 0.032,0.032 0.064,0.032 0.096,0.032 l 34.966,11.602 c 0.032,0 0.064,0.032 0.096,0.032 l 2.652,0.895 2.078,1.439 32.824,22.724 30.3,34.135 9.812,26.879 3.228,8.79 2.301,18.793 z"
       style="fill:#ffffff;fill-opacity:1;fill-rule:nonzero;stroke:none"
       transform="matrix(1.4327816,0,0,-1.7109562,938.48823,497.50621)"
       clip-path="url(#clipPath2)" />
    <path
       id="path4"
       d="M 423.21809,120.18426 V 619.3968 H 544.89134 V 459.28209 h 45.70287 l 5.63226,13.8348 33.38382,82.08141 26.10241,64.1985 h 80.8705 l 52.84671,3.55708 h 0.31951 l -1.51015,-3.55708 -7.60234,-17.27895 h -0.0444 c -2.88706,0.1095 -5.72397,0.16425 -8.65544,0.1095 v 0 c -3.11486,0 -6.68679,1.03855 -9.15977,-2.46206 v 0 c 0.1834,-2.02235 1.32819,-2.9514 2.56468,-3.66316 v 0 c 3.29826,-2.0771 6.59509,-4.21066 9.80023,-6.39726 v 0 l -8.38034,-18.97622 c -1.74083,1.20451 -3.52608,2.35085 -5.31276,3.44415 v 0 c -1.78524,1.09502 -3.57192,2.13528 -5.35717,3.11908 v 0 c -6.41026,3.50061 -12.95951,6.23301 -19.87411,7.92857 v 0 c -1.96864,0.49275 -3.98457,0.8743 -5.99906,1.2028 v 0 c -0.68773,0.1095 -1.41989,0.16425 -2.15204,0.219 v 0 c -0.59603,0.1095 -1.23649,0.16426 -1.87694,0.21729 v 0 c -0.68774,0.0565 -1.41989,0.10951 -2.10762,0.16597 v 0 c -1.0531,0.053 -2.10619,0.053 -3.15929,0.053 v 0 c -1.46573,0 -2.88562,-0.053 -4.35135,-0.1095 v 0 c -18.40838,-1.25585 -33.93257,-10.88169 -48.58706,-23.18517 v 0 c -1.0531,-0.8743 -2.56468,-1.91456 -1.7394,-3.82741 v 0 c 0.36679,-0.93076 1.69498,-1.69556 2.65494,-1.69556 v 0 c 29.62993,-0.87601 55.5948,-12.35823 80.13978,-27.72604 v 0 l -8.5623,-19.4108 c -19.64631,12.08448 -40.20815,21.48961 -62.6928,25.04326 v 0 c -0.64045,0.10951 -1.32819,0.21901 -2.01449,0.32851 v 0 c -1.00724,0.1095 -2.01449,0.219 -3.02173,0.219 v 0 c -1.0531,0.0548 -2.06178,0.1095 -3.06902,0.1095 v 0 c -2.15204,0 -4.34993,-0.1095 -6.45612,-0.38154 v 0 c -2.15347,-0.27547 -4.30551,-0.65701 -6.41169,-1.14976 v 0 c -0.96283,-0.21901 -1.87838,-0.49276 -2.83978,-0.7648 v 0 c -0.96139,-0.27375 -1.87694,-0.60226 -2.79249,-0.93076 v 0 c -0.59604,-0.21729 -1.23792,-0.4363 -1.83253,-0.6553 v 0 c -6.59366,-2.56985 -12.86781,-6.34422 -18.5932,-11.10068 v 0 c -1.09751,-0.9838 -2.19646,-1.91456 -3.24955,-2.95311 v 0 c -5.08351,-4.81292 -9.61827,-10.44539 -13.37215,-16.89741 v 0 c -1.00725,-1.69555 -1.97008,-3.50061 -2.88563,-5.35871 v 0 c -2.19788,-4.53917 -4.07626,-9.40684 -5.49471,-14.6013 v 0 c 2.93003,1.69556 5.81566,3.22686 8.7457,4.53745 v 0 c 1.92422,0.87601 3.84845,1.69556 5.77124,2.46207 v 0 c 2.15204,0.81955 4.34993,1.58606 6.50196,2.18831 v 0 c 4.57917,1.36706 9.11393,2.35086 13.6014,2.9514 v 0 c 1.92422,0.21901 3.80117,0.43801 5.72396,0.54751 v 0 c 1.87695,0.1095 3.80117,0.16425 5.67812,0.16425 v 0 c 11.67717,0 23.21822,-2.24306 34.80226,-6.07047 v 0 c 1.92423,-0.65701 3.84702,-1.36706 5.77125,-2.0771 v 0 c 1.92279,-0.71176 3.84701,-1.47656 5.77124,-2.29782 v 0 c 8.56087,-3.61011 16.94264,-7.70957 25.23129,-12.14094 v 0 l -2.97589,-6.67102 v -0.0548 l -5.81566,-13.17779 -10.80891,-24.55393 c 13.5097,-10.60964 24.86593,-23.45892 34.07155,-38.55297 v 0 c 3.75389,-6.12352 7.14385,-12.57724 10.16559,-19.46726 v 0 c 0.87113,-1.91285 1.69498,-3.88216 2.47154,-5.90623 v 0 c 5.17521,-13.23424 8.83883,-27.88858 10.99087,-43.96644 v 0 -0.053 c 1.51159,-11.31968 2.29102,-23.35113 2.29102,-36.09262 v 0 c 0,-10.50014 -0.59604,-20.83602 -1.87838,-30.78694 v 0 c 0,-0.32851 -0.0459,-0.65701 -0.0917,-0.9838 v 0 c -1.41988,-10.93815 -3.48022,-21.54608 -6.32,-31.82721 v 0 c -4.12068,-14.98285 -10.34898,-28.43609 -18.63619,-40.41279 v 0 c -2.79535,-4.10116 -5.81709,-7.98332 -9.11392,-11.70123 v 0 C 716.38957,155.23662 701.96433,144.73648 684.3798,136.58891 v 0 c -0.22925,-0.16425 -0.50434,-0.27375 -0.73215,-0.38326 v 0 c -2.29102,-1.03855 -4.67231,-2.0771 -7.05216,-3.06261 v 0 c -17.26645,-7.05427 -37.82686,-11.21018 -61.77724,-12.52249 v 0 c -5.40302,-0.27375 -10.98944,-0.43629 -16.75925,-0.43629 v 0 z m 143.28819,222.2361 c -0.55018,-0.27375 -1.05309,-0.54579 -1.60328,-0.8743 v 0 c -7.18826,-4.10116 -13.05121,-10.22638 -17.63038,-18.04545 v 0 c -3.70947,-6.17826 -5.99762,-13.06999 -7.41751,-20.45277 v 0 c -1.09894,-5.57601 -1.37403,-11.21019 -0.91554,-16.7879 v 0 c 0.73215,-7.76432 2.4257,-15.20185 5.86007,-22.03712 v 0 l 35.17049,-73.16904 c 1.51159,-3.17211 3.02174,-6.34252 4.57917,-9.45988 v 0 c 0.0458,-0.1095 0.0917,-0.16425 0.13755,-0.27204 v 0 c 0.54876,-1.14976 0.73215,-0.98551 1.32819,0.21729 v 0 l 19.59902,40.63179 20.92721,43.52844 c 2.65638,5.63246 4.03041,11.81073 4.85569,18.20799 v 0 c 0.77657,6.40069 0.50291,12.68845 -0.55162,18.97622 v 0 c -1.3726,8.14928 -4.21237,15.47731 -8.3789,22.14833 v 0 c -4.03042,6.45201 -9.0208,11.53868 -14.83646,15.25659 v 0 c -0.64188,0.43801 -1.28377,0.82126 -1.97007,1.2028 v 0 c -3.11344,1.80506 -6.31857,3.22516 -9.66268,4.10288 v 0 c -1.28234,0.38154 -2.56325,0.65529 -3.84702,0.8743 v 0 c -2.28815,0.38154 -4.53189,0.43629 -6.77706,0.54579 v 0 c -0.51866,0.0257 -1.03447,0.0394 -1.54883,0.0394 v 0 c -6.06927,0 -11.82905,-1.75886 -17.31804,-4.63327"
       style="fill:url(#linearGradient4);stroke:none;stroke-width:1.5657" />
    <path
       id="path5"
       d="m 0,0 c -0.032,-13.04 -1.662,-25.697 -4.73,-37.714 -1.534,-6.041 -3.452,-11.922 -5.721,-17.643 -15.757,-40.239 -48.262,-71.721 -89.204,-86.04 -8.79,-3.1 -17.963,-5.37 -27.455,-6.808 -2.046,-0.288 -4.123,-0.575 -6.201,-0.799 -2.109,-0.224 -4.251,-0.415 -6.392,-0.543 l -1.087,2.077 h 0.032 l -5.337,10.1 h 0.032 c 2.173,0.064 4.282,0.192 6.424,0.352 2.141,0.127 4.219,0.351 6.328,0.607 16.844,1.982 33.016,6.935 48.326,15.214 13.679,7.383 25.952,16.683 36.404,28.19 4.123,4.57 3.867,5.529 -1.822,8.054 -3.931,1.726 -7.99,2.525 -12.305,2.652 -12.593,0.32 -23.14,-5.209 -33.336,-11.57 -15.022,-9.396 -28.925,-20.487 -43.851,-30.107 -1.63,-1.055 -3.292,-2.11 -4.954,-3.132 -1.694,-1.023 -3.356,-2.014 -5.05,-3.005 l -5.849,11.091 c 1.694,0.959 3.388,1.982 5.05,3.036 1.662,1.023 3.292,2.11 4.922,3.228 0.256,0.16 0.48,0.32 0.736,0.48 14.989,10.195 29.596,20.934 44.841,30.715 19.081,12.305 39.121,18.505 60.695,5.561 1.087,-0.639 2.429,-1.758 3.611,-0.224 4.891,6.488 8.79,13.552 11.634,20.935 0,2.109 -0.639,2.844 -4.25,4.283 -15.278,6.104 -30.971,7.479 -47.08,3.739 -18.697,-4.347 -34.997,-13.839 -51.17,-23.619 -10.387,-6.265 -20.615,-12.913 -31.098,-18.985 -1.694,-0.959 -3.388,-1.95 -5.114,-2.877 -1.694,-0.959 -3.42,-1.886 -5.146,-2.781 l -5.976,11.347 c 1.725,0.895 3.451,1.79 5.177,2.748 1.694,0.927 3.42,1.918 5.114,2.877 0.416,0.224 0.799,0.479 1.215,0.703 18.346,10.707 35.764,22.852 54.717,32.409 24.866,12.497 50.34,17.962 76.899,8.757 2.014,-0.639 4.028,-1.438 6.073,-2.301 5.114,-2.173 7.479,-1.246 7.927,4.347 0.064,0.927 0.543,1.822 0.735,2.781 3.036,14.798 3.579,12.496 -9.333,16.683 -2.749,0.895 -5.561,1.63 -8.374,2.27 -1.981,0.447 -3.963,0.831 -5.913,1.118 -21.574,3.452 -42.317,-1.15 -62.58,-8.757 -25.505,-9.621 -48.773,-23.747 -73.032,-35.861 -0.032,-0.032 -0.064,-0.064 -0.096,-0.064 -1.726,-0.863 -3.451,-1.694 -5.177,-2.525 -1.758,-0.863 -3.548,-1.694 -5.306,-2.493 l -2.078,3.9 v 0.032 l -4.09,7.702 h 0.032 c 1.534,0.448 3.259,1.183 5.433,2.269 0.447,0.192 0.895,0.416 1.374,0.672 1.311,0.607 2.589,1.246 3.899,1.885 5.466,2.685 10.899,5.37 16.269,8.183 25.984,13.551 51.394,28.381 80.351,35.061 3.356,0.799 3.26,3.005 3.132,5.753 -1.47,33.304 -28.51,61.302 -65.777,63.891 -0.032,0.383 -0.096,0.767 -0.159,1.151 -1.023,6.967 -2.685,13.871 -4.859,20.519 -3.292,10.004 -8.278,19.081 -14.83,27.103 -2.333,2.877 -4.858,5.593 -7.574,8.182 -6.616,6.265 -14.575,11.73 -23.78,16.3 15.246,5.274 31.578,8.055 48.55,7.927 C -67.79,150.154 0.192,82.109 0,0"
       style="fill:#c6a96e;fill-opacity:1;fill-rule:nonzero;stroke:none"
       transform="matrix(1.4327816,0,0,-1.7109562,989.91431,367.08378)"
       clip-path="url(#clipPath6)" />
    <g
       mask="url(#mask6)"
       id="g11"
       clip-path="url(#clipPath12)"
       transform="matrix(1.0745863,0,0,1.2832172,-61.341495,-93.259264)">
      <path
         d="m 583.563,499.9 c -16.973,0.127 -33.304,-2.653 -48.55,-7.927 v 0 c 9.205,-4.57 17.163,-10.036 23.779,-16.3 v 0 c 2.717,-2.589 5.242,-5.305 7.575,-8.182 v 0 c 25.281,-0.128 101.158,-9.781 125.352,-118.928 v 0 c 0.288,-1.055 0.511,-2.141 0.736,-3.228 v 0 c 0.447,-2.206 0.927,-4.284 1.406,-6.265 v 0 c 1.95,-0.287 3.931,-0.671 5.912,-1.118 v 0 c 2.814,-0.64 5.626,-1.375 8.375,-2.27 v 0 c 12.912,-4.187 12.369,-1.886 9.333,-16.683 v 0 c -0.193,-0.96 -0.671,-1.854 -0.735,-2.781 v 0 c -0.448,-5.594 -2.813,-6.52 -7.927,-4.347 v 0 c -2.045,0.863 -4.06,1.662 -6.073,2.301 v 0 c 5.114,-8.789 10.803,-10.994 16.748,-8.47 v 0 c 3.1,1.279 6.297,3.868 9.493,7.448 v 0 c 3.068,12.017 4.698,24.674 4.73,37.714 v 0 c 0.19,81.447 -66.685,149.057 -148.152,149.049 v 0 c -0.662,0 -1.339,-0.004 -2.002,-0.013"
         transform="matrix(1.3333333,0,0,-1.3333333,0,826.56)"
         style="fill:url(#linearGradient11);stroke:none"
         id="path11" />
    </g>
    <g
       mask="url(#mask12)"
       id="g19"
       clip-path="url(#clipPath20)"
       transform="matrix(1.0745863,0,0,1.2832172,-61.341495,-93.259264)">
      <path
         d="m 702.578,268.031 c -4.411,-5.018 -8.79,-10.004 -13.552,-14.639 v 0 c -4.698,-4.698 -9.557,-9.14 -14.767,-13.199 v 0 c -10.227,-8.278 -21.318,-15.469 -33.335,-20.967 v 0 c -11.954,-5.657 -24.834,-9.301 -38.289,-12.113 v 0 c 10.419,-0.895 21.094,-0.128 31.418,2.365 v 0 c 40.942,14.319 73.447,45.801 89.203,86.04 v 0 c -6.456,-9.653 -13.359,-18.793 -20.678,-27.487"
         transform="matrix(1.3333333,0,0,-1.3333333,0,826.56)"
         style="fill:url(#linearGradient19);stroke:none"
         id="path19" />
    </g>
    <g
       mask="url(#mask20)"
       id="g25"
       clip-path="url(#clipPath26)"
       transform="matrix(1.0745863,0,0,1.2832172,-61.341495,-93.259264)">
      <path
         d="m 421.413,495.18 c 10.452,-7.766 21.223,-19.145 29.469,-35.733 v 0 c 0.383,0.672 0.511,0.576 0.927,-0.128 v 0 l 13.679,-23.747 14.606,-25.441 c 1.854,-3.292 2.813,-6.903 3.388,-10.643 v 0 c 0.543,-3.74 0.352,-7.415 -0.383,-11.09 v 0 c -0.959,-4.763 -2.941,-9.045 -5.849,-12.945 v 0 c -2.812,-3.771 -6.296,-6.744 -10.355,-8.917 v 0 c 4.059,-71.657 8.309,-61.813 8.309,-61.813 v 0 l 82.557,33.176 c 2.62,3.579 4.986,7.351 7.095,11.377 v 0 c 0.608,1.119 1.183,2.27 1.725,3.453 v 0 c 3.613,7.735 6.169,16.3 7.672,25.697 v 0 0.031 c 1.055,6.616 1.598,13.648 1.598,21.094 v 0 c 0,6.138 -0.416,12.178 -1.311,17.995 v 0 c 0,0.192 -0.031,0.383 -0.064,0.575 v 0 c -0.99,6.393 -2.429,12.593 -4.411,18.602 v 0 c -2.876,8.757 -7.222,16.62 -13.007,23.62 v 0 c -1.95,2.397 -4.06,4.665 -6.361,6.839 v 0 c -7.894,7.511 -17.962,13.647 -30.235,18.41 v 0 c -0.16,0.096 -0.352,0.16 -0.511,0.223 v 0 c -1.599,0.608 -3.26,1.215 -4.922,1.791 v 0 c -12.05,4.122 -26.401,6.552 -43.117,7.318 v 0 c -3.771,0.161 -7.67,0.256 -11.697,0.256 v 0 z"
         transform="matrix(1.3333333,0,0,-1.3333333,0,826.56)"
         style="fill:url(#linearGradient25);stroke:none"
         id="path25" />
    </g>
    <g
       mask="url(#mask26)"
       id="g31"
       clip-path="url(#clipPath32)"
       transform="matrix(1.0745863,0,0,1.2832172,-61.341495,-93.259264)">
      <path
         d="m 371.874,353.08 -33.688,-0.575 v -149.1 h 84.922 v 93.583 h 31.833 l -3.931,7.927 c -14.63,29.54 -44.706,48.181 -77.559,48.179 v 0 c -0.523,0 -1.052,-0.005 -1.577,-0.014"
         transform="matrix(1.3333333,0,0,-1.3333333,0,826.56)"
         style="fill:url(#linearGradient31);stroke:none"
         id="path31" />
    </g>
    <path
       id="path33"
       d="m 0,0 h -0.767 l -18.218,37.523 -23.3,47.974 z"
       style="fill:#003f3d;fill-opacity:1;fill-rule:nonzero;stroke:none"
       transform="matrix(1.4327816,0,0,-1.7109562,656.79862,619.37968)"
       clip-path="url(#clipPath34)" />
    <path
       id="path35"
       d="M 116.06178,728.57618 H 69.535561 c -3.21537,0 -5.87665,-0.59148 -7.99224,-1.78447 -2.10719,-1.20302 -3.76105,-3.03762 -4.96996,-5.51383 -0.49532,-1.12281 -0.88569,-2.31079 -1.17533,-3.56894 -0.29383,-1.25315 -0.43655,-2.54639 -0.43655,-3.86971 0,-2.84714 0.60446,-6.03513 1.81337,-9.56397 1.20891,-3.52885 3.00548,-7.4186 5.38972,-11.66926 1.35163,-1.69425 2.2709,-2.39601 2.75363,-2.10528 0.31062,0.1604 0.47013,0.61153 0.47013,1.34337 0,0.96241 -0.36519,2.39601 -1.09138,4.29076 -1.07459,2.4762 -1.86374,4.69176 -2.36745,6.65669 -0.49531,1.9549 -0.73878,3.64914 -0.73878,5.09276 0,4.88224 2.43461,7.31835 7.30383,7.31835 h 37.963119 v -16.22067 l 9.60411,-10.52639 z m -10.3261,-50.84748 -8.462359,10.22564 -8.59669,-10.22564 8.59669,-10.70684 z m -18.150429,0 -8.51274,10.22564 -8.54632,-10.22564 8.54632,-10.70684 z m 72.001469,60.75231 H 120.5826 V 722.6413 c 10.82142,-5.8246 18.01611,-10.99256 21.57568,-15.49886 -3.87439,-6.56145 -7.7026,-12.10033 -11.48464,-16.62167 -3.78624,-4.51632 -7.51371,-8.04016 -11.18241,-10.56649 l 3.22375,-12.93242 c 3.62673,2.84713 7.45914,6.78701 11.50143,11.8096 4.05069,5.01257 8.42879,11.18805 13.1301,18.52645 0.14272,-0.3208 0.26865,-0.93234 0.36939,-1.84462 0.10074,-0.90728 0.15112,-2.19049 0.15112,-3.84965 v -19.56907 l 9.85597,-8.78201 v 28.67188 c 0,2.55641 -0.38198,5.02259 -1.14175,7.39855 -0.76396,2.36593 -1.97287,4.6667 -3.62673,6.89729 2.17016,4.17046 3.81562,8.07525 4.93638,11.70936 1.12916,3.63912 1.69583,7.06772 1.69583,10.28579 z m -8.61348,-13.49383 c -0.26864,-1.48372 -0.79754,-3.17295 -1.5783,-5.07272 -0.77235,-1.89475 -1.78817,-3.95992 -3.03906,-6.19553 -2.17436,2.14037 -4.58378,4.14038 -7.23667,5.99503 -2.64449,1.85966 -5.50305,3.61908 -8.5799,5.27322 z m 50.67766,-1.80452 c 0,3.47872 -0.30223,6.70681 -0.90668,9.68428 -0.60446,2.96744 -1.47756,5.74941 -2.61931,8.34091 -2.66548,6.44115 -6.64061,9.66423 -11.92119,9.66423 -2.56473,0 -5.16725,-0.68171 -7.80754,-2.04513 -2.64449,-1.36342 -5.31416,-3.40854 -8.00903,-6.13538 -1.07458,-1.19299 -1.49014,-2.14037 -1.24249,-2.84714 0.23507,-0.81203 0.97385,-0.85214 2.21634,-0.1203 1.31805,0.66667 2.63609,1.17294 3.94574,1.52382 1.31805,0.34587 2.66968,0.52131 4.04649,0.52131 6.18727,0 9.95672,-4.39602 11.29995,-13.19308 h -13.88567 c -5.16305,0 -7.74038,-2.78699 -7.74038,-8.36096 0,-2.5915 0.46174,-5.49879 1.39361,-8.72187 0.94026,-3.21807 2.37584,-6.75694 4.31513,-10.60659 2.08201,-4.17046 4.13884,-7.28326 6.17887,-9.34342 2.03584,-2.05516 4.03809,-3.08775 6.01097,-3.08775 4.80206,0 8.5883,4.46119 11.3671,13.37353 2.23732,7.178 3.35809,14.29584 3.35809,21.35354 z m -10.82982,-7.98001 c -0.0671,-1.36342 -0.27704,-2.70678 -0.62124,-4.0301 -0.3484,-1.32332 -0.76397,-2.61656 -1.24249,-3.88975 -1.52373,-3.13787 -3.18598,-4.71182 -4.98675,-4.71182 -2.2835,0 -4.61737,3.01757 -7.00161,9.04267 l -0.36938,1.48372 c 0,1.40352 0.94865,2.10528 2.85437,2.10528 z m 41.67799,13.37353 h -24.53078 v -65.58443 l 9.83918,10.58655 v 41.62435 h 14.6916 z m 53.08708,0 h -17.42844 c -1.32224,0 -2.56893,-0.1604 -3.74426,-0.48121 -1.17532,-0.33083 -2.2625,-0.87218 -3.25734,-1.62407 -1.17533,1.40352 -3.04746,2.10528 -5.60799,2.10528 h -27.38516 v -13.37353 h 15.19532 c -0.58347,-1.16291 -0.87311,-2.56643 -0.87311,-4.21056 0,-4.58148 2.33388,-9.72437 7.00161,-15.41865 4.63414,-5.65418 8.81496,-8.48127 12.54244,-8.48127 3.42523,0 6.1201,2.37596 8.09296,7.11785 0.69261,1.81956 1.21731,3.48373 1.57831,4.99252 0.36939,1.49876 0.55407,2.90729 0.55407,4.2306 0,4.09026 -1.20891,8.0151 -3.62672,11.76951 h 16.95831 z M 263.6411,708.50586 c 0,-1.68422 -0.5373,-3.22809 -1.61188,-4.63161 -1.06619,-1.61405 -2.22474,-2.35591 -3.47563,-2.22558 -2.93412,0.2807 -5.63318,2.1153 -8.09297,5.49377 0.75976,1.85967 1.77978,3.4286 3.05585,4.71182 1.28446,1.28321 2.84598,2.34087 4.68453,3.16794 0.37778,-0.17043 0.94026,-0.58647 1.67904,-1.24312 0.74717,-0.65163 1.67064,-1.58397 2.77042,-2.78699 0.37778,-0.37093 0.63803,-0.76692 0.77235,-1.18296 0.14271,-0.41103 0.21829,-0.84712 0.21829,-1.30327 z m 10.10781,-38.07546 -8.44557,10.26574 -8.61348,-10.26574 8.61348,-10.72689 z m -18.20079,0 -8.44558,10.26574 -8.56312,-10.26574 8.56312,-10.72689 z m 77.58847,58.14578 h -12.81107 c -0.8983,1.93986 -1.77979,3.41857 -2.6529,4.43111 -0.86469,1.01755 -1.75879,1.52382 -2.68646,1.52382 -1.3894,0 -3.63932,-0.87219 -6.74973,-2.62659 -3.11463,-1.76442 -7.16952,-4.35592 -12.17306,-7.7795 -0.38198,0.95239 -0.80594,1.72432 -1.27606,2.32583 -0.47014,0.59148 -0.93187,1.05264 -1.37682,1.38347 -0.48272,0.21554 -1.38522,0.39599 -2.70326,0.54136 -1.30965,0.13534 -3.05585,0.2005 -5.23861,0.2005 h -4.09685 v -13.37353 h 9.97349 c 6.55667,-17.7495 12.48367,-26.62675 17.78105,-26.62675 5.46108,0 9.97351,8.87725 13.53307,26.62675 h 10.47721 z m -19.19143,-8.36096 c -1.34324,-11.87979 -3.48821,-17.82469 -6.43073,-17.82469 -1.97287,0 -4.24797,2.96744 -6.83369,8.90232 1.85533,1.65916 3.89537,3.24313 6.1117,4.75191 2.21634,1.49876 4.60058,2.88724 7.15272,4.17046 z m 35.76777,8.36096 h -20.80331 v -13.37353 h 11.09845 V 673.5783 l 9.70486,-10.58655 z m 18.40229,0 h -9.8056 V 673.5783 l 9.8056,-10.58655 z m 41.09033,-5.39352 c 0,3.47872 -0.30223,6.70681 -0.90668,9.68428 -0.60446,2.96744 -1.47755,5.74941 -2.61931,8.34091 -2.66547,6.44115 -6.6406,9.66423 -11.92119,9.66423 -2.56473,0 -5.16725,-0.68171 -7.80754,-2.04513 -2.64448,-1.36342 -5.31416,-3.40854 -8.00902,-6.13538 -1.07459,-1.19299 -1.49015,-2.14037 -1.24249,-2.84714 0.23506,-0.81203 0.97384,-0.85214 2.21632,-0.1203 1.31806,0.66667 2.63611,1.17294 3.94576,1.52382 1.31804,0.34587 2.66967,0.52131 4.04649,0.52131 6.18726,0 9.95671,-4.39602 11.29994,-13.19308 h -13.88567 c -5.16304,0 -7.74037,-2.78699 -7.74037,-8.36096 0,-2.5915 0.46172,-5.49879 1.39359,-8.72187 0.94026,-3.21807 2.37585,-6.75694 4.31514,-10.60659 2.08202,-4.17046 4.13883,-7.28326 6.17887,-9.34342 2.03584,-2.05516 4.03809,-3.08775 6.01098,-3.08775 4.80205,0 8.58829,4.46119 11.3671,13.37353 2.23732,7.178 3.35808,14.29584 3.35808,21.35354 z m -10.82981,-7.98001 c -0.0672,-1.36342 -0.27704,-2.70678 -0.62125,-4.0301 -0.3484,-1.32332 -0.76396,-2.61656 -1.2425,-3.88975 -1.52372,-3.13787 -3.18597,-4.71182 -4.98674,-4.71182 -2.28349,0 -4.61736,3.01757 -7.0016,9.04267 l -0.3694,1.48372 c 0,1.40352 0.94866,2.10528 2.85437,2.10528 z m 71.56072,-4.21056 c 0,6.48627 -3.81982,11.74946 -11.45106,15.79962 -1.80497,0.95238 -3.59314,1.65414 -5.37293,2.10527 -1.77979,0.45615 -3.55538,0.68171 -5.32255,0.68171 -6.39296,0 -9.58733,-2.80703 -9.58733,-8.42111 0,-2.36593 0.67161,-5.21808 2.01485,-8.56146 1.35162,-3.33837 3.37907,-7.178 6.07813,-11.50886 l -3.22376,-1.36342 5.60799,-13.07277 c 5.36034,2.1153 9.75942,4.84214 13.19727,8.18051 3.43363,3.34338 5.91442,7.40857 7.43814,12.19056 0.1763,0.75189 0.32322,1.45866 0.43655,2.12533 0.12179,0.65665 0.1847,1.27319 0.1847,1.84462 z m -9.58732,0.74186 c -0.89829,-4.21055 -4.45786,-7.42862 -10.6787,-9.66422 -2.18276,3.38348 -3.27413,6.41608 -3.27413,9.10282 0,3.34338 1.58669,5.01257 4.76848,5.01257 3.76943,0 6.83369,-1.48373 9.18435,-4.45117 z m 8.71422,-41.30355 -8.46237,10.26574 -8.59669,-10.26574 8.59669,-10.72689 z m -18.15044,0 -8.46237,10.26574 -8.61346,-10.26574 8.61346,-10.72689 z m 50.79099,52.75226 -0.25185,5.39352 c -0.48272,5.49377 -1.72521,10.24569 -3.72747,14.25574 -2.464,5.02259 -5.7843,7.5389 -9.95671,7.5389 -2.24992,0 -4.57959,-0.67168 -6.98481,-2.00503 -2.40943,-1.33835 -4.88602,-3.42859 -7.43816,-6.27573 -0.89409,-1.08271 -1.27607,-1.8747 -1.14174,-2.36593 0.38198,-1.14788 1.14174,-1.35339 2.28349,-0.62156 2.20374,1.48372 4.43267,2.22558 6.68258,2.22558 3.35809,0 5.89763,-1.82959 7.62285,-5.49377 0.6926,-1.40352 1.19631,-3.01757 1.51114,-4.85217 0.31062,-1.84462 0.47013,-3.87972 0.47013,-6.11533 0,-7.54893 -1.99387,-14.90236 -5.97739,-22.05529 l 7.84113,-13.61414 c 3.00967,5.16295 5.27219,10.54645 6.78332,16.16052 1.51953,5.61408 2.28349,11.55898 2.28349,17.82469 z m 30.86917,5.39352 H 508.0423 v -65.58443 l 9.83918,10.58655 v 41.62435 h 14.6916 z m 52.14682,0 h -56.48293 v -13.37353 h 31.75065 l -3.37487,-8.18051 c -0.38198,-0.90727 -0.77236,-1.72432 -1.17533,-2.44613 -0.39457,-0.72181 -0.83113,-1.34838 -1.30965,-1.88473 -0.79754,-1.10777 -1.69582,-1.98497 -2.70325,-2.62658 -1.00742,-0.64161 -2.0988,-1.00251 -3.27414,-1.08272 -2.93412,-0.33082 -6.42653,1.54388 -10.47721,5.63413 -1.09977,1.11279 -1.89311,1.31831 -2.38424,0.62156 -0.16791,-0.37093 0.41976,-2.07019 1.763,-5.09277 1.31804,-3.21807 3.3119,-6.18551 5.97739,-8.90232 2.96351,-3.05767 5.86824,-4.59151 8.71422,-4.59151 5.34774,0 10.16659,4.81206 14.45654,14.43619 l 4.36551,9.66423 c 0.72618,1.48372 1.58249,2.60152 2.56892,3.3484 0.98224,0.73684 2.03164,1.10276 3.13981,1.10276 h 8.44558 z m -20.90406,18.8272 -8.44557,10.28579 -8.61348,-10.28579 8.61348,-10.52639 z m 61.12969,-18.8272 h -44.44421 v -13.37353 h 17.31091 v -16.22067 l 9.8056,-10.52639 v 26.74706 h 17.3277 z m -7.21987,-58.14578 -8.34484,10.26574 -8.61348,-10.26574 8.61348,-10.72689 z m -18.03291,0 -8.46236,10.26574 -8.71423,-10.26574 8.71423,-10.72689 z m 52.85201,58.14578 h -32.00251 v -13.37353 h 11.3671 V 673.5783 l 9.43621,-10.40609 v 52.03044 h 11.1992 z m 16.57214,0 h -20.80332 v -13.37353 h 11.09846 V 673.5783 l 9.70486,-10.58655 z m 87.77186,0 h -46.52622 c -3.21536,0 -5.87664,-0.59148 -7.99224,-1.78447 -2.10719,-1.20302 -3.76105,-3.03762 -4.96996,-5.51383 -0.49532,-1.12281 -0.88569,-2.31079 -1.17533,-3.56894 -0.29383,-1.25315 -0.43655,-2.54639 -0.43655,-3.86971 0,-2.84714 0.60446,-6.03513 1.81337,-9.56397 1.20891,-3.52885 3.00547,-7.4186 5.38972,-11.66926 1.35163,-1.69425 2.2709,-2.39601 2.75362,-2.10528 0.31063,0.1604 0.47014,0.61153 0.47014,1.34337 0,0.96241 -0.3652,2.39601 -1.09138,4.29076 -1.07458,2.4762 -1.86373,4.69176 -2.36746,6.65669 -0.49531,1.9549 -0.73877,3.64914 -0.73877,5.09276 0,4.88224 2.43462,7.31835 7.30384,7.31835 h 37.96311 v -16.22067 l 9.60411,-10.52639 z m -10.3261,-50.84748 -8.46237,10.22564 -8.59669,-10.22564 8.59669,-10.70684 z m -18.15044,0 -8.51273,10.22564 -8.54633,-10.22564 8.54633,-10.70684 z m 80.51422,50.84748 h -11.04809 c -0.31481,2.88724 -0.84791,5.584 -1.59509,8.08026 -0.73877,2.50127 -1.66224,4.76194 -2.77041,6.79704 -2.73265,4.94239 -6.309,7.4186 -10.72907,7.4186 -2.63191,0 -5.25121,-0.68171 -7.85792,-2.04513 -2.6109,-1.36342 -5.29737,-3.40854 -8.0594,-6.13538 -1.07459,-1.15289 -1.52792,-2.10027 -1.36002,-2.84714 0.34421,-0.81203 1.12496,-0.85214 2.33387,-0.1203 1.31804,0.66667 2.63609,1.17294 3.94575,1.52382 1.30965,0.34587 2.65708,0.52131 4.04648,0.52131 6.18726,0 9.95671,-4.39602 11.29994,-13.19308 h -13.95282 c -5.11688,0 -7.67322,-2.78699 -7.67322,-8.36096 0,-2.5915 0.46174,-5.49879 1.39361,-8.72187 0.94026,-3.21807 2.37583,-6.75694 4.31513,-10.60659 4.08426,-8.28577 8.14754,-12.43117 12.18984,-12.43117 4.21859,0 7.62284,3.36344 10.20857,10.08529 0.94026,2.2356 1.7462,4.73186 2.41781,7.4988 0.67162,2.76694 1.19632,5.8246 1.5783,9.16297 h 11.31674 z m -21.52531,-13.37353 c -0.14692,-1.48372 -0.39877,-2.92734 -0.75556,-4.33086 -0.36099,-1.40352 -0.85212,-2.74688 -1.47756,-4.0301 -1.42298,-2.84714 -2.96351,-4.27071 -4.61737,-4.27071 -2.35065,0 -4.7181,3.01757 -7.10234,9.04267 l -0.36938,1.48372 c 0,1.40352 0.94866,2.10528 2.85437,2.10528 z m 93.25814,13.37353 h -75.65759 v -13.37353 h 13.16368 v -15.91991 l 9.75524,-10.70684 v 26.62675 h 10.77943 v -15.91991 l 9.75524,-10.70684 v 26.62675 h 10.57795 v -15.91991 l 9.53695,-10.70684 v 26.62675 h 12.0891 z m 29.00963,0 h -33.24501 v -13.37353 h 23.55694 v -15.91991 l 9.68807,-10.70684 z m 3.37487,18.8272 -8.44557,10.28579 -8.61348,-10.28579 8.61348,-10.52639 z m -18.30155,0 -8.36163,10.28579 -8.54631,-10.28579 8.54631,-10.52639 z m 45.75808,-24.22072 -0.25187,5.39352 c -0.48272,5.49377 -1.72521,10.24569 -3.72747,14.25574 -2.46398,5.02259 -5.7843,7.5389 -9.95671,7.5389 -2.24992,0 -4.57959,-0.67168 -6.98482,-2.00503 -2.40942,-1.33835 -4.886,-3.42859 -7.43814,-6.27573 -0.8941,-1.08271 -1.27608,-1.8747 -1.14175,-2.36593 0.38198,-1.14788 1.14175,-1.35339 2.28349,-0.62156 2.20375,1.48372 4.43267,2.22558 6.68258,2.22558 3.35808,0 5.89765,-1.82959 7.62286,-5.49377 0.69261,-1.40352 1.19631,-3.01757 1.51113,-4.85217 0.31062,-1.84462 0.47013,-3.87972 0.47013,-6.11533 0,-7.54893 -1.99385,-14.90236 -5.97739,-22.05529 l 7.84113,-13.61414 c 3.00968,5.16295 5.27219,10.54645 6.78333,16.16052 1.51952,5.61408 2.2835,11.55898 2.2835,17.82469 z m 78.6505,5.39352 h -21.27349 v -8.36096 l -8.8653,10.10533 -16.3875,-8.30081 c -0.9318,-0.45113 -1.3936,-1.19299 -1.3936,-2.22558 0,-0.70677 0.1721,-1.40853 0.5205,-2.10528 1.7546,-3.25816 3.8115,-6.52135 6.1621,-9.78453 2.3507,-3.2732 5.0623,-6.5414 8.1434,-9.80458 3.6687,-4.03511 7.0393,-7.05769 10.1078,-9.06272 3.0768,-2.00503 5.84729,-3.00754 8.31119,-3.00754 2.0023,0 3.0055,1.198 3.0055,3.589 v 25.58414 h 11.6694 z m -21.27349,-13.37353 v -14.61664 c 0,-0.65164 -0.1092,-1.15289 -0.319,-1.50377 -0.2015,-0.36091 -0.5625,-0.54136 -1.0746,-0.54136 -2.2499,0 -6.5566,4.1103 -12.9118,12.33091 l 9.5873,4.89227 c 0.3106,0.2005 0.6422,0.35589 0.9906,0.46115 0.3442,0.11028 0.6758,0.16041 0.9907,0.16041 0.8941,0 1.8049,-0.39098 2.7368,-1.18297 z m 10.07419,-44.77225 -8.46229,10.26574 -8.4456,-10.26574 8.4456,-10.72689 z m -18.15039,0 -8.4623,10.26574 -8.6135,-10.26574 8.6135,-10.72689 z m 80.16159,44.77225 -3.2069,13.37353 h -51.6641 v -13.37353 h 35.8475 l -3.2238,-8.18051 c -0.3819,-0.82707 -0.7723,-1.60903 -1.1753,-2.34588 -0.3946,-0.74687 -0.8311,-1.40853 -1.3096,-1.98498 -0.9319,-1.10777 -1.8974,-1.98497 -2.9048,-2.62658 -1.0074,-0.64161 -2.0442,-1.00251 -3.1062,-1.08272 -1.4902,-0.17042 -3.102,0.19549 -4.8356,1.10277 -1.7253,0.91229 -3.589,2.42107 -5.5913,4.53136 -0.3148,0.37594 -0.617,0.64161 -0.9066,0.80201 -0.2939,0.1604 -0.5289,0.2406 -0.7052,0.2406 -0.382,0 -0.6381,-0.14035 -0.7724,-0.42105 -0.1469,-0.21053 -0.076,-0.74186 0.2183,-1.58397 0.3022,-0.84211 0.7598,-2.01004 1.3768,-3.5088 0.7598,-1.64412 1.6161,-3.20804 2.5689,-4.69176 0.9487,-1.49375 2.0527,-2.89727 3.3077,-4.21056 3.1776,-3.17797 6.1663,-4.77196 8.9661,-4.77196 2.762,0 5.3268,1.21805 7.69,3.64915 2.3717,2.4361 4.6174,6.09027 6.733,10.96749 l 4.1472,9.66423 c 1.5867,2.96744 3.5764,4.45116 5.9606,4.45116 z m 18.4317,13.37353 h -9.8056 V 673.5783 l 9.8056,-10.58655 z m 41.0903,-5.39352 c 0,3.47872 -0.3022,6.70681 -0.9066,9.68428 -0.6045,2.96744 -1.4776,5.74941 -2.6193,8.34091 -2.6655,6.44115 -6.6407,9.66423 -11.9212,9.66423 -2.5648,0 -5.1673,-0.68171 -7.8076,-2.04513 -2.6445,-1.36342 -5.3141,-3.40854 -8.009,-6.13538 -1.0746,-1.19299 -1.4902,-2.14037 -1.2425,-2.84714 0.2351,-0.81203 0.9738,-0.85214 2.2163,-0.1203 1.3181,0.66667 2.6361,1.17294 3.9458,1.52382 1.318,0.34587 2.6697,0.52131 4.0465,0.52131 6.1872,0 9.9567,-4.39602 11.2999,-13.19308 h -13.8856 c -5.1631,0 -7.7404,-2.78699 -7.7404,-8.36096 0,-2.5915 0.4617,-5.49879 1.3936,-8.72187 0.9402,-3.21807 2.3758,-6.75694 4.3151,-10.60659 2.082,-4.17046 4.1388,-7.28326 6.1789,-9.34342 2.0358,-2.05516 4.0381,-3.08775 6.0109,-3.08775 4.8021,0 8.5883,4.46119 11.3672,13.37353 2.2373,7.178 3.358,14.29584 3.358,21.35354 z m -10.8298,-7.98001 c -0.067,-1.36342 -0.277,-2.70678 -0.6212,-4.0301 -0.3484,-1.32332 -0.764,-2.61656 -1.2425,-3.88975 -1.5237,-3.13787 -3.186,-4.71182 -4.9868,-4.71182 -2.2835,0 -4.6173,3.01757 -7.0016,9.04267 l -0.3694,1.48372 c 0,1.40352 0.9487,2.10528 2.8544,2.10528 z m 89.4593,13.37353 h -21.2734 v -8.36096 l -8.8654,10.10533 -16.3874,-8.30081 c -0.9319,-0.45113 -1.3936,-1.19299 -1.3936,-2.22558 0,-0.70677 0.1721,-1.40853 0.5205,-2.10528 1.7546,-3.25816 3.8114,-6.52135 6.1621,-9.78453 2.3506,-3.2732 5.0623,-6.5414 8.1433,-9.80458 3.6687,-4.03511 7.0394,-7.05769 10.1079,-9.06272 3.0768,-2.00503 5.8472,-3.00754 8.3112,-3.00754 2.0023,0 3.0055,1.198 3.0055,3.589 v 25.58414 h 11.6693 z m -21.2734,-13.37353 v -14.61664 c 0,-0.65164 -0.1092,-1.15289 -0.319,-1.50377 -0.2015,-0.36091 -0.5625,-0.54136 -1.0746,-0.54136 -2.2499,0 -6.5567,4.1103 -12.9119,12.33091 l 9.5874,4.89227 c 0.3106,0.2005 0.6422,0.35589 0.9906,0.46115 0.3442,0.11028 0.6758,0.16041 0.9906,0.16041 0.8941,0 1.805,-0.39098 2.7369,-1.18297 z m 10.0742,-44.77225 -8.4623,10.26574 -8.4456,-10.26574 8.4456,-10.72689 z m -18.1504,0 -8.4624,10.26574 -8.6135,-10.26574 8.6135,-10.72689 z m 66.5824,-5.77447 -1.763,11.70935 -20.1653,7.11785 c 6.0781,5.57397 10.3974,10.98754 12.9622,16.24071 3.8366,7.75444 5.7003,17.37356 5.5912,28.85234 h -37.5937 v -13.37353 h 27.3851 c -2.2499,-10.31586 -8.1853,-18.05527 -17.7978,-23.21821 v -14.6768 z m 37.8917,63.92025 h -10.8466 c -0.2351,2.72684 -0.6674,5.31332 -1.2929,7.75945 -0.6296,2.43611 -1.4397,4.63663 -2.4346,6.61659 -2.5311,5.27824 -5.801,7.91986 -9.8056,7.91986 -4.6005,0 -9.4614,-2.82709 -14.574,-8.48127 -0.8605,-1.03258 -1.2425,-1.87971 -1.1418,-2.54638 0.382,-1.06768 1.125,-1.20803 2.2331,-0.42105 1.1418,0.65163 2.2709,1.15289 3.3917,1.50377 1.1292,0.3609 2.2415,0.54135 3.3413,0.54135 3.3581,0 5.8808,-1.77946 7.5725,-5.33337 0.6926,-1.44362 1.2005,-3.07771 1.5279,-4.91231 0.3358,-1.84463 0.5037,-3.87973 0.5037,-6.11534 0,-7.46872 -1.9897,-14.79709 -5.9606,-21.97509 l 7.8243,-13.69433 c 4.7014,8.05018 7.5557,16.63671 8.5632,25.76459 h 11.0984 z m 37.7784,-69.73483 -5.9773,7.7394 -5.9606,-7.7394 5.9606,-7.73941 z m 7.455,13.99508 -6.5819,8.62162 -6.8504,-8.62162 6.7497,-7.7394 z m -13.4323,0 -6.733,8.62162 -6.5818,-8.62162 6.5818,-8.78201 z m -10.0575,55.73975 h -26.0251 v -13.37353 h 13.4323 v -15.91991 l 9.6881,-10.70684 v 26.62675 h 10.1078 v -15.91991 l 9.6041,-10.70684 v 26.62675 h 9.0668 v -15.91991 l 9.6041,-10.70684 v 40.00028 z m 0,0"
       style="fill:#024c48;fill-opacity:1;fill-rule:nonzero;stroke:none;stroke-width:1.5657"
       aria-label="ﺕﻻﻭﺎﻘﻤﻟﺍﻭ ﺓﺭﺎﺠﺘﻠﻟ ﺕﻮﺴﻳﺭ ﺔﺣﺍﻭ ﺔﻛﺮﺷ" />
  </g>
</svg>
